<?xml version="1.0" encoding="UTF-8"?>
<svg width="700pt" height="700pt" version="1.1" viewBox="0 0 700 700" xmlns="http://www.w3.org/2000/svg">
 <path d="m183.01 5.5977c-3.1562 0.003906-5.7109 2.5625-5.7148 5.7188v15.047h-40.891c-16.277 0-29.559 13.281-29.559 29.559v468.92c0 16.273 13.281 29.559 29.559 29.559h316.29c16.273 0 29.555-13.281 29.555-29.559v-27.961h88.375c7.5703 0 14.383-5.8086 14.383-13.535 0-5.2266-3.1016-9.5547-7.4531-11.82l15.113-58.797c1.6914-6.5664-1.2266-12.887-5.5156-16.848-2.168-2.0078-4.7109-3.582-7.4766-4.6641-4.1758-15.793-8.4922-31.484-12.387-47.199v-0.007812c-0.3125-1.3242-1.0859-2.4961-2.1797-3.3008-6.9883-6.6367-16.477-10.707-26.871-10.707h-1.0508l-10.348-7.9102c-1.0742-0.81641-2.3984-1.2305-3.7461-1.1641-0.54297 0.039062-1.0781 0.15625-1.5859 0.34766l-24.523 8.4336-14.688-5.0508v-3.6406c4.6406 1.4688 9.5781 2.2617 14.695 2.2617 26.906 0 48.852-21.879 48.852-48.738s-21.945-48.742-48.852-48.742c-5.1211 0-10.055 0.81641-14.695 2.2617v-172.09c0-16.273-13.281-29.555-29.559-29.555h-40.891v-15.047c0-3.1562-2.5586-5.7148-5.7148-5.7148zm5.7148 11.43h211.66v15.125l0.003906 0.003906v0.125 14.848h-211.66v-15.113-0.12891zm64.379 9.332 0.003907 0.003906c-1.543-0.046875-3.0391 0.53906-4.1484 1.6133-1.1094 1.0781-1.7344 2.5547-1.7344 4.1016 0 1.543 0.625 3.0234 1.7344 4.1016 1.1094 1.0742 2.6055 1.6562 4.1484 1.6133h82.898c1.543 0.042969 3.0391-0.53906 4.1484-1.6133 1.1055-1.0781 1.7305-2.5586 1.7305-4.1016 0-1.5469-0.625-3.0234-1.7305-4.1016-1.1094-1.0742-2.6055-1.6602-4.1484-1.6133zm-116.7 11.43h40.891v15.047l0.007812 0.003906c0 3.1562 2.5586 5.7148 5.7148 5.7188h223.09-0.003906c3.1562-0.003906 5.7148-2.5625 5.7188-5.7188v-15.047h40.891c10.137 0 18.129 7.9766 18.129 18.121v177.42c-13.645 8.6562-22.738 23.867-22.738 41.145 0 17.281 9.0977 32.488 22.738 41.145v5.2969c-0.027344 0-0.054688-0.003906-0.082032-0.007813-1.3164-0.042968-2.6055 0.36719-3.6523 1.1641l-10.348 7.9102h-1.0508c-4.6094 0-9.0391 0.81641-13.156 2.2734-1.5508-0.81641-3.125-1.4922-4.7227-2.1562-2.8711-1.1797-5.9023-1.9141-8.8984-2.7305v-16.965c0-3.1562-2.5586-5.7148-5.7148-5.7148h-29.32c-3.1562 0-5.7148 2.5586-5.7148 5.7148v16.922c-5.9961 1.6797-11.727 4.0469-17.141 7.1289l-11.984-11.977h-0.003906c-2.2305-2.2305-5.8477-2.2305-8.082 0l-10.359 10.359-10.371 10.359h0.003906c-2.2305 2.2305-2.2305 5.8477 0 8.082l11.957 11.961c-3.0547 5.4258-5.4141 11.164-7.0703 17.164h-16.965 0.003906c-3.1562 0-5.7148 2.5586-5.7188 5.7148v29.312c0 1.5156 0.59766 2.9727 1.6719 4.0469 1.0703 1.0742 2.5273 1.6797 4.0469 1.6797h16.922c1.6797 5.9961 4.0586 11.727 7.1289 17.141l-11.984 11.984h-0.003907c-2.2305 2.2344-2.2305 5.8516 0 8.0859l10.371 10.359 10.359 10.371-0.003906-0.003907c2.2344 2.2305 5.8516 2.2305 8.082 0l11.961-11.961c5.4258 3.0547 11.164 5.4141 17.168 7.0703v16.961c0 3.1562 2.5586 5.7148 5.7148 5.7148h29.32 0.042969c0.015624 0 0.042968 0.003906 0.042968 0.003906h47.566v27.961c0 10.137-7.9883 18.117-18.129 18.117h-316.29c-10.137 0-18.129-7.9766-18.129-18.117v-468.92c0-10.137 7.9922-18.121 18.129-18.121zm84.508 71.359 0.003906 0.003906c-1.4805 0.046875-2.8828 0.66406-3.918 1.7266l-9.6562 9.6484c-4.7578-4.5625-11.211-7.3711-18.273-7.3711-14.559 0-26.484 11.926-26.484 26.484s11.926 26.484 26.484 26.484 26.484-11.926 26.484-26.484c0-3.3125-0.58594-6.4844-1.7383-9.4023l11.27-11.27h-0.003906c1.6992-1.6445 2.2109-4.1641 1.2891-6.3398-0.92188-2.1758-3.0898-3.5586-5.4531-3.4805zm-31.852 15.445c3.9766 0 7.5586 1.5039 10.23 3.9766l-8.7617 8.7617-4.082-4.0703 0.003907 0.003906c-1.0625-1.1094-2.5273-1.7461-4.0664-1.7617-1.5391-0.015625-3.0156 0.58594-4.1055 1.6758-1.0859 1.0859-1.6875 2.5664-1.6719 4.1016 0.015625 1.5391 0.65234 3.0039 1.7617 4.0664l8.1172 8.1172v0.003906c2.2344 2.2305 5.8516 2.2305 8.082 0l9.5195-9.5195c-0.12891 8.2344-6.7539 14.754-15.035 14.754-8.375 0-15.055-6.6719-15.055-15.047s6.6719-15.047 15.055-15.047zm55.551 12.48 0.003906 0.007812c-1.543-0.046875-3.0391 0.53516-4.1484 1.6133-1.1094 1.0781-1.7344 2.5547-1.7344 4.1016s0.625 3.0234 1.7344 4.1016c1.1094 1.0781 2.6055 1.6602 4.1484 1.6133h61.207c1.5469 0.046875 3.043-0.53516 4.1523-1.6133 1.1094-1.0781 1.7344-2.5547 1.7344-4.1016s-0.625-3.0234-1.7344-4.1016c-1.1094-1.0781-2.6055-1.6602-4.1523-1.6133zm0 17.613 0.003906 0.007812c-1.543-0.042968-3.0391 0.53906-4.1484 1.6133-1.1094 1.0781-1.7344 2.5586-1.7344 4.1016 0 1.5469 0.625 3.0273 1.7344 4.1016 1.1094 1.0781 2.6055 1.6602 4.1484 1.6172h176.12c1.543 0.042969 3.0391-0.53906 4.1484-1.6172 1.1094-1.0742 1.7344-2.5547 1.7344-4.1016 0-1.543-0.625-3.0234-1.7344-4.1016-1.1094-1.0742-2.6055-1.6562-4.1484-1.6133zm-55.551 41.152c-14.559 0-26.484 11.926-26.484 26.484 0 14.559 11.926 26.484 26.484 26.484s26.484-11.926 26.484-26.484c0-14.559-11.926-26.484-26.484-26.484zm0 11.43c8.3867 0 15.051 6.6719 15.051 15.051 0 8.375-6.6719 15.047-15.051 15.047-8.375 0-15.055-6.6719-15.055-15.047s6.6719-15.051 15.055-15.051zm55.551 12.484 0.003906 0.011719c-1.543-0.046875-3.0391 0.53516-4.1484 1.6133-1.1055 1.0781-1.7305 2.5547-1.7305 4.1016 0 1.543 0.625 3.0234 1.7305 4.1016 1.1094 1.0742 2.6055 1.6562 4.1484 1.6133h61.207c1.543 0.042969 3.0391-0.53906 4.1484-1.6133 1.1094-1.0781 1.7344-2.5586 1.7344-4.1016 0-1.5469-0.625-3.0234-1.7344-4.1016s-2.6055-1.6602-4.1484-1.6133zm252.34 17.41c20.742 0 37.414 16.641 37.414 37.305s-16.672 37.312-37.414 37.312c-20.742 0-37.422-16.648-37.422-37.312s16.68-37.305 37.422-37.305zm-252.34 0.23438 0.003906 0.007812c-3.0898 0.089844-5.5508 2.625-5.5508 5.7148 0 3.0938 2.4609 5.6289 5.5508 5.7188h176.12c1.543 0.042968 3.0391-0.53906 4.1484-1.6133 1.1094-1.0781 1.7344-2.5586 1.7344-4.1055 0-1.543-0.625-3.0234-1.7344-4.1016-1.1094-1.0742-2.6055-1.6562-4.1484-1.6133zm-23.688 36.41 0.003906 0.007812h-0.011719c-1.4805 0.046875-2.8867 0.66406-3.9219 1.7266l-10.031 10.031c-4.7227-4.3516-11.012-7.0117-17.895-7.0117-14.559 0-26.484 11.926-26.484 26.484s11.926 26.484 26.484 26.484 26.484-11.926 26.484-26.484c0-3.5117-0.69922-6.8594-1.9453-9.9375l11.477-11.477c1.6953-1.6406 2.207-4.1562 1.2891-6.332-0.92188-2.1758-3.082-3.5625-5.4414-3.4883zm-31.863 16.18c3.7773 0 7.207 1.3633 9.8438 3.6289l-8.375 8.3633-4.082-4.0703 0.003907 0.003906c-1.0625-1.1094-2.5273-1.7422-4.0664-1.7617-1.5391-0.015625-3.0156 0.58984-4.1055 1.6758-1.0859 1.0859-1.6875 2.5664-1.6719 4.1055 0.015625 1.5352 0.65234 3.0039 1.7617 4.0664l8.1172 8.1172c2.2344 2.2305 5.8516 2.2305 8.082 0l9.5195-9.5195c0.003906 0.12891 0.019531 0.23438 0.019531 0.46484 0 8.375-6.6719 15.047-15.047 15.047s-15.055-6.6719-15.055-15.047 6.6719-15.051 15.055-15.051zm55.551 12.484 0.003906 0.007813c-1.543-0.046875-3.0391 0.53516-4.1484 1.6133-1.1094 1.0742-1.7344 2.5547-1.7344 4.1016 0 1.543 0.625 3.0234 1.7344 4.1016s2.6055 1.6602 4.1484 1.6133h61.207c1.5469 0.046875 3.043-0.53516 4.1523-1.6133 1.1055-1.0781 1.7344-2.5586 1.7344-4.1016 0-1.5469-0.62891-3.0273-1.7344-4.1016-1.1094-1.0781-2.6055-1.6602-4.1523-1.6133zm154.95 13.672h17.867v15.445l0.007813 0.007812c-0.003906 2.707 1.8984 5.043 4.5469 5.5977 2.7773 0.58594 5.5039 1.3516 8.1758 2.2852-0.46484 0.46875-0.93359 0.81641-1.4102 1.2734-1.082 0.80469-1.8477 1.9648-2.1562 3.2773-0.58594 2.4141-1.2266 4.8398-1.8438 7.2539-5.1211-1.6797-10.59-2.6016-16.254-2.6016-28.723 0-52.133 23.402-52.133 52.125 0 28.719 23.41 52.125 52.133 52.125 1.0508 0 2.0156-0.042969 3.0195-0.10547l4.8047 18.699c-4.3516 2.2734-7.4531 6.6016-7.4531 11.82 0 0.69922 0.085938 1.4219 0.23438 2.0977h-9.5078v-15.438 0.007813c0.003906-2.7109-1.8984-5.0469-4.5469-5.6016-7.8398-1.6445-15.309-4.7227-22.035-9.0742-2.2773-1.4492-5.2617-1.1094-7.1523 0.81641l-10.871 10.871-6.3203-6.3203-6.3203-6.3125 10.906-10.906h-0.003906c1.8945-1.9219 2.1875-4.9062 0.69922-7.1602-4.375-6.707-7.4766-14.176-9.1445-22.012-0.5625-2.6445-2.8984-4.5312-5.5977-4.5273h-15.387v-17.867h15.445v-0.003906c2.707 0.003906 5.0469-1.8984 5.5977-4.5469 1.6445-7.8398 4.7227-15.312 9.0742-22.035 1.4805-2.2539 1.1914-5.2305-0.69922-7.1523l-10.871-10.871 6.3203-6.3203 6.3242-6.3203 10.906 10.906v-0.003906c1.9219 1.8945 4.9102 2.1875 7.1602 0.70312 6.707-4.375 14.172-7.4766 22.012-9.1445v-0.003906c2.6445-0.5625 4.5312-2.8945 4.5273-5.5977zm-154.95 3.9414 0.003906 0.007812c-3.0898 0.089844-5.5508 2.625-5.5508 5.7148 0 3.0938 2.4609 5.6289 5.5508 5.7188h82.105c3.0898-0.089844 5.5508-2.625 5.5508-5.7188 0-3.0898-2.4609-5.625-5.5508-5.7148zm226.99 12.961 12.332 4.2461-5.4844 3.5352-9.7031-5.5977zm50.68 0 2.8594 2.1797-9.6914 5.5977-5.4844-3.5352zm-66.633 8.3867h1.0508l19.109 11.035 0.007812 0.011719c1.8516 1.0742 4.1445 1.0234 5.9492-0.12891l1.168-0.69922 0.34766 2.1133c-2.2148 12.164-4.4453 23.773-6.6836 35.895h-50.047c3.6406-13.664 7.3477-27.352 10.801-41.176 4.8516-4.3516 11.258-6.9883 18.379-6.9883zm81.59 0h1.0508c7.1289 0 13.523 2.6484 18.379 6.9883 3.4531 13.824 7.1602 27.512 10.801 41.176h-50.039c-2.2266-12.121-4.4688-23.73-6.6836-35.895l0.34766-2.1094 1.168 0.69922 0.007812 0.011719c1.8047 1.1523 4.0977 1.1992 5.9492 0.125zm-40.297 1.0508 3.6406 2.3438-0.58594 3.1719h-6.2305l-0.58594-3.1602zm-3.1953 16.945h6.3789c1.8789 10.16 3.7578 20.062 5.6094 30.141h-17.613c1.8672-10.078 3.7461-19.977 5.6211-30.141zm-85.254 0.69922c4.6992 0 9.1914 0.81641 13.379 2.25-2.5312 9.6016-5.1211 19.211-7.6758 28.859-2.7656 1.0508-5.2969 2.6602-7.4766 4.6641-4.293 3.9648-7.207 10.289-5.5156 16.848l7.3945 28.75c-0.042968 0-0.0625 0.003906-0.10547 0.003906-22.543 0-40.699-18.148-40.699-40.688 0-22.539 18.152-40.688 40.699-40.688zm-219.44 1.168c-14.559 0-26.484 11.918-26.484 26.477 0 14.559 11.926 26.484 26.484 26.484 14.559 0 26.484-11.926 26.484-26.484 0-14.559-11.926-26.477-26.484-26.477zm0 11.43c8.3867 0 15.051 6.6719 15.051 15.047s-6.6719 15.047-15.051 15.047c-8.375 0-15.055-6.6719-15.055-15.047s6.6719-15.047 15.055-15.047zm95.035 12.488 0.003906 0.011718c-0.023438 0-0.042969 0.003907-0.0625 0.003907h-39.426c-1.5391-0.035157-3.0273 0.55078-4.1289 1.625-1.1016 1.0742-1.7227 2.5508-1.7227 4.0898 0 1.5391 0.62109 3.0156 1.7227 4.0898 1.1016 1.0781 2.5898 1.6641 4.1289 1.625h39.426c1.5352 0.042969 3.0273-0.53516 4.1367-1.6016 1.1055-1.0703 1.7344-2.543 1.7422-4.082 0.007813-1.5391-0.60547-3.0156-1.6992-4.0977-1.0938-1.082-2.5781-1.6758-4.1172-1.6484zm138.69 15.867h148.31c2.8594 0 6.2539 1.375 8.3047 3.2656 2.0547 1.8906 2.7188 3.582 2.1914 5.5977l-15.406 59.922h-138.5l-15.406-59.922c-0.46484-2.0156 0.12891-3.6992 2.1914-5.5977 2.0547-1.8906 5.4492-3.2656 8.3047-3.2656zm-178.18 1.7383 0.003906 0.011719c-3.0898 0.09375-5.5508 2.625-5.5508 5.7188 0 3.0898 2.4609 5.625 5.5508 5.7148h55.215c1.543 0.042969 3.043-0.53906 4.1523-1.6133 1.1055-1.0781 1.7344-2.5586 1.7344-4.1016 0-1.5469-0.62891-3.0273-1.7344-4.1055-1.1094-1.0742-2.6094-1.6562-4.1523-1.6133zm252.34 10.578c-12.145 0-22.129 9.9609-22.129 22.098 0 12.137 9.9844 22.086 22.129 22.086 12.145 0 22.121-9.9492 22.121-22.086 0-12.137-9.9727-22.098-22.121-22.098zm0 11.441c5.9727 0 10.684 4.7109 10.684 10.66s-4.7109 10.648-10.684 10.648-10.695-4.6992-10.695-10.648 4.7109-10.66 10.695-10.66zm-276.02 15.348 0.003906 0.019531h-0.011719c-1.4805 0.046875-2.8867 0.66406-3.9219 1.7266l-9.543 9.543c-4.7695-4.6172-11.27-7.4766-18.391-7.4766-14.559 0-26.484 11.918-26.484 26.477 0 14.559 11.926 26.484 26.484 26.484 14.559 0 26.484-11.926 26.484-26.484 0-3.2422-0.58203-6.3555-1.6797-9.2383l11.211-11.211c1.6992-1.6445 2.2109-4.1602 1.2891-6.3359-0.91797-2.1719-3.0781-3.5586-5.4414-3.4883zm-31.863 15.219c4.0352 0 7.6641 1.5508 10.348 4.0938l-8.875 8.875-4.082-4.0703v0.019531c-1.0625-1.1133-2.5312-1.7461-4.0664-1.7656-1.5391-0.015625-3.0195 0.58984-4.1055 1.6758-1.0898 1.0859-1.6914 2.5664-1.6758 4.1055 0.015625 1.5391 0.65234 3.0039 1.7656 4.0664l8.1172 8.1172v0.003906c2.2305 2.2305 5.8516 2.2305 8.082 0l9.5078-9.5078c-0.23437 8.1172-6.8242 14.508-15.023 14.508-8.375 0-15.055-6.6719-15.055-15.047s6.6719-15.047 15.055-15.047zm116.82 12.488v0.019531h-0.0625-61.207c-1.5391-0.035156-3.0273 0.55078-4.1289 1.6289-1.1016 1.0742-1.7227 2.5469-1.7227 4.0898 0 1.5391 0.62109 3.0117 1.7227 4.0898 1.1016 1.0742 2.5898 1.6602 4.1289 1.625h61.207c1.5391 0.042969 3.0312-0.53516 4.1367-1.6055 1.1055-1.0703 1.7344-2.5391 1.7461-4.0781 0.007813-1.5391-0.60547-3.0156-1.6992-4.0977-1.0977-1.082-2.582-1.6758-4.1211-1.6523zm117.38 13.398h147.21v0.015625h0.12891 0.042968c2.0312 0 2.9492 1.1797 2.9492 2.1094 0 0.93359-0.93359 2.0977-2.9492 2.0977h-147.37c-2.0312 0-2.9492-1.168-2.9492-2.0977 0-0.93359 0.93359-2.1094 2.9492-2.1094zm-178.65 4.2109 0.003906 0.015625c-3.0898 0.089844-5.5508 2.625-5.5508 5.7188 0 3.0898 2.4609 5.625 5.5508 5.7148h126.62c3.0898-0.089844 5.5508-2.625 5.5508-5.7148 0-3.0938-2.4609-5.6289-5.5508-5.7188z"/>
</svg>
